<svg width="156" height="156" viewBox="0 0 156 156" fill="none" xmlns="http://www.w3.org/2000/svg">
<path d="M125.787 27.737H29.7639C27.2419 27.737 25.1977 29.7869 25.1977 32.3032C25.1977 34.8196 27.2419 36.8695 29.7639 36.8695H125.787C132.19 36.8695 137.407 42.0806 137.407 48.5009V107.505C137.407 113.914 132.19 119.125 125.787 119.125H30.2188C23.8157 119.125 18.5989 113.914 18.5989 107.505V48.0461C18.5989 45.5182 16.549 43.4741 14.0211 43.4741C11.5048 43.4741 9.46066 45.5182 9.46066 48.0461V107.505C9.46066 118.958 18.7716 128.263 30.2188 128.263H125.787C137.234 128.263 146.545 118.958 146.545 107.505V48.5009C146.545 37.0422 137.234 27.737 125.787 27.737ZM110.441 92.6084C107.666 92.6084 105.42 90.357 105.42 87.5988C105.42 85.0653 103.37 83.0211 100.848 83.0211C98.3263 83.0211 96.2822 85.0653 96.2822 87.5988C96.2822 93.7889 100.313 99.0173 105.869 100.929V103.514C105.869 106.036 107.919 108.092 110.441 108.092C112.969 108.092 115.008 106.036 115.008 103.514V100.929C120.57 99.0173 124.595 93.7889 124.595 87.5988C124.595 79.7793 118.25 73.428 110.441 73.428C107.666 73.428 105.42 71.1766 105.42 68.4127C105.42 65.643 107.666 63.3915 110.441 63.3915C113.205 63.3915 115.457 65.643 115.457 68.4127C115.457 70.9347 117.501 72.9846 120.029 72.9846C122.551 72.9846 124.595 70.9347 124.595 68.4127C124.595 62.2111 120.57 56.9942 115.008 55.0768V52.4798C115.008 49.9578 112.969 47.9079 110.441 47.9079C107.919 47.9079 105.869 49.9578 105.869 52.4798V55.0768C100.313 56.9942 96.2822 62.2111 96.2822 68.4127C96.2822 76.2207 102.633 82.5662 110.441 82.5662C113.205 82.5662 115.457 84.8176 115.457 87.5988C115.457 90.357 113.205 92.6084 110.441 92.6084ZM32.3033 105.42H78C80.5221 105.42 82.5662 103.365 82.5662 100.848C82.5662 98.332 80.5221 96.2821 78 96.2821H32.3033C29.7812 96.2821 27.7371 98.332 27.7371 100.848C27.7371 103.365 29.7812 105.42 32.3033 105.42ZM32.3033 59.7236H78C80.5221 59.7236 82.5662 57.6737 82.5662 55.1574C82.5662 52.6295 80.5221 50.5854 78 50.5854H32.3033C29.7812 50.5854 27.7371 52.6295 27.7371 55.1574C27.7371 57.6737 29.7812 59.7236 32.3033 59.7236ZM32.3033 82.5662H78C80.5221 82.5662 82.5662 80.5221 82.5662 77.9942C82.5662 75.4722 80.5221 73.428 78 73.428H32.3033C29.7812 73.428 27.7371 75.4722 27.7371 77.9942C27.7371 80.5221 29.7812 82.5662 32.3033 82.5662Z" fill="white"/>
</svg>
